<?xml version="1.0" standalone="no"?>
<!DOCTYPE svg PUBLIC "-//W3C//DTD SVG 20010904//EN"
 "http://www.w3.org/TR/2001/REC-SVG-20010904/DTD/svg10.dtd">
<svg version="1.0" xmlns="http://www.w3.org/2000/svg"
 width="1080.000000pt" height="162.000000pt" viewBox="0 0 1080.000000 162.000000"
 preserveAspectRatio="xMidYMid meet">

<g transform="translate(0.000000,162.000000) scale(0.100000,-0.100000)"
fill="#000000" stroke="none">
<path d="M160 1318 c1 -66 3 -79 12 -63 33 61 98 110 169 129 l54 15 -117 0
-118 1 0 -82z"/>
<path d="M527 1390 c91 -19 156 -69 195 -155 23 -50 23 -53 23 -455 0 -402 0
-405 -23 -455 -39 -86 -104 -136 -195 -155 -23 -4 707 -8 1623 -8 950 0 1646
4 1621 9 -96 19 -167 85 -197 185 -21 69 -21 779 0 848 30 100 101 166 197
185 25 5 -671 9 -1621 9 -916 0 -1646 -4 -1623 -8z m620 -27 c3 -16 32 -127
64 -248 l58 -220 0 236 c1 168 4 238 13 247 16 16 180 16 196 0 17 -17 17
-1179 0 -1196 -8 -8 -49 -12 -118 -12 l-107 0 -84 321 -84 320 -3 -307 c-1
-206 -6 -312 -13 -321 -15 -17 -180 -18 -197 -1 -17 17 -17 1179 0 1196 8 8
54 12 140 12 l128 0 7 -27z m1011 15 c16 -16 16 -180 0 -196 -8 -8 -58 -12
-160 -12 l-148 0 0 -125 0 -125 114 0 c85 0 116 -4 125 -14 8 -9 11 -47 9
-107 l-3 -94 -122 -3 -123 -3 0 -154 0 -155 148 0 c102 0 152 -4 160 -12 7 -7
12 -44 12 -98 0 -54 -5 -91 -12 -98 -17 -17 -519 -17 -536 0 -17 17 -17 1179
0 1196 17 17 519 17 536 0z m661 -2 c8 -9 11 -47 9 -107 l-3 -94 -92 -3 -93
-3 0 -487 c0 -366 -3 -491 -12 -500 -16 -16 -200 -16 -216 0 -9 9 -12 134 -12
500 l0 488 -83 0 c-51 0 -88 5 -95 12 -7 7 -12 44 -12 98 0 54 5 91 12 98 19
19 581 17 597 -2z m649 2 c16 -16 16 -180 0 -196 -8 -8 -58 -12 -160 -12
l-148 0 0 -125 0 -125 114 0 c85 0 116 -4 125 -14 8 -9 11 -47 9 -107 l-3 -94
-122 -3 -123 -3 0 -154 0 -155 148 0 c102 0 152 -4 160 -12 7 -7 12 -44 12
-98 0 -54 -5 -91 -12 -98 -17 -17 -519 -17 -536 0 -17 17 -17 1179 0 1196 17
17 519 17 536 0z"/>
<path d="M3943 1389 c59 -14 112 -45 146 -86 47 -56 62 -121 59 -249 l-3 -109
-105 0 -105 0 -6 98 c-6 110 -17 130 -70 130 -59 0 -59 -1 -59 -393 0 -392 0
-393 59 -393 56 0 65 19 71 151 l5 117 105 0 105 0 3 -129 c2 -92 -2 -143 -12
-180 -26 -89 -96 -152 -193 -175 -24 -6 131 -9 412 -8 248 1 416 3 375 4 -41
2 -80 9 -87 15 -10 8 -13 69 -13 264 l0 254 -70 0 -70 0 0 -253 c0 -183 -3
-256 -12 -265 -16 -16 -200 -16 -216 0 -17 17 -17 1179 0 1196 16 16 200 16
216 0 9 -9 12 -75 12 -235 l0 -223 70 0 70 0 0 224 c0 171 3 226 13 234 7 6
46 13 87 15 41 1 -127 3 -375 4 -281 1 -436 -2 -412 -8z"/>
<path d="M420 1173 c-39 -14 -40 -26 -40 -393 0 -284 3 -360 14 -375 19 -27
74 -24 98 4 17 22 18 48 18 371 0 317 -2 350 -17 368 -20 23 -50 33 -73 25z"/>
<path d="M5120 435 l0 -305 2319 0 2318 0 5 38 c4 30 3 471 -1 550 l-1 22
-2320 0 -2320 0 0 -305z m240 240 c62 -32 85 -102 85 -265 0 -73 -4 -93 -28
-143 -42 -84 -105 -109 -173 -68 -90 55 -112 275 -43 419 33 66 96 90 159 57z
m430 -35 l0 -50 -52 0 c-29 0 -70 -3 -90 -6 -38 -7 -38 -7 -38 -55 l0 -49 85
0 85 0 0 -45 0 -45 -85 0 -85 0 0 -105 0 -105 -60 0 -60 0 0 173 c0 96 3 208
6 250 l7 76 121 4 c67 1 131 4 144 5 20 2 22 -2 22 -48z m330 0 l0 -50 -52 0
c-29 0 -70 -3 -90 -6 -38 -7 -38 -7 -38 -55 l0 -49 85 0 85 0 0 -45 0 -45 -85
0 -85 0 0 -105 0 -105 -60 0 -60 0 0 173 c0 96 3 208 6 250 l7 76 121 4 c67 1
131 4 144 5 20 2 22 -2 22 -48z m205 8 c-1 -21 -2 -135 -3 -253 l-2 -215 -61
0 -62 0 6 68 c4 37 9 146 12 242 4 96 8 181 11 188 3 9 19 12 51 10 l48 -3 0
-37z m395 17 c22 -20 46 -82 53 -136 5 -34 3 -37 -25 -43 -68 -13 -76 -10 -83
37 -9 60 -19 74 -39 58 -50 -42 -51 -294 -1 -296 6 0 19 19 30 43 11 23 24 42
30 42 18 0 85 -50 85 -63 0 -25 -60 -95 -96 -112 -49 -23 -99 -13 -139 29 -42
45 -55 95 -55 213 0 89 3 105 28 154 37 73 81 102 145 96 26 -2 56 -12 67 -22z
m265 -17 c-1 -21 -2 -135 -3 -253 l-2 -215 -61 0 -62 0 6 68 c4 37 9 146 12
242 4 96 8 181 11 188 3 9 19 12 51 10 l48 -3 0 -37z m339 0 c13 -36 99 -357
113 -425 5 -22 0 -25 -64 -38 -31 -6 -32 -5 -43 37 -17 66 -18 68 -39 68 -29
0 -47 -23 -55 -69 -3 -23 -9 -41 -12 -41 -3 0 -25 5 -50 11 -29 8 -44 17 -44
27 0 20 119 430 132 455 16 32 45 20 62 -25z m269 -164 l-6 -207 92 5 92 6 -7
-47 c-4 -25 -8 -48 -10 -50 -3 -3 -50 -5 -107 -5 -170 -1 -181 14 -167 250 5
88 10 180 10 207 l0 47 54 0 55 0 -6 -206z m744 186 c26 -16 73 -83 73 -104 0
-8 -77 -46 -93 -46 -7 0 -17 14 -22 32 -11 36 -30 47 -39 22 -11 -29 3 -48 64
-86 46 -29 65 -48 80 -80 35 -77 18 -157 -43 -202 -41 -30 -128 -28 -184 4
-24 13 -43 28 -43 32 0 18 41 88 51 88 6 0 24 -11 41 -25 37 -32 56 -32 68 0
13 35 -3 72 -41 93 -82 44 -119 94 -119 159 0 50 18 82 59 110 43 29 104 30
148 3z m323 5 c62 -32 85 -102 85 -265 0 -73 -4 -93 -28 -143 -42 -84 -105
-109 -173 -68 -90 55 -112 275 -43 419 33 66 96 90 159 57z m313 5 l107 0 0
-50 0 -50 -45 0 -45 0 0 -200 0 -200 -24 0 c-13 0 -38 3 -55 6 l-31 6 0 194 0
194 -45 0 -45 0 0 56 0 57 38 -7 c20 -3 85 -6 145 -6z m336 0 c100 -28 129
-153 55 -231 l-27 -29 36 -93 c20 -51 37 -96 37 -100 0 -12 -92 -49 -100 -40
-4 4 -20 44 -35 88 -16 44 -32 84 -37 90 -4 5 -8 -35 -8 -89 0 -97 0 -98 -22
-92 -13 3 -38 6 -56 6 l-33 0 7 243 c5 158 11 245 18 249 16 11 125 10 165 -2z
m431 -2 c0 -7 -3 -30 -6 -50 l-7 -38 -61 0 c-33 0 -66 -4 -73 -8 -7 -4 -15
-27 -19 -50 l-7 -42 72 0 71 0 0 -50 0 -50 -71 0 -70 0 3 -47 3 -48 83 1 82 1
0 -41 c0 -66 -6 -69 -112 -70 -188 -2 -190 3 -173 336 l8 157 96 4 c53 1 115
4 139 5 28 1 42 -2 42 -10z"/>
<path d="M5289 563 c-26 -67 -23 -231 5 -269 13 -17 14 -16 26 7 20 37 24 156
7 211 -10 32 -11 48 -4 51 12 4 1 27 -14 27 -5 0 -14 -12 -20 -27z"/>
<path d="M7276 428 c-9 -36 -7 -48 9 -48 11 0 13 8 8 33 -8 41 -9 43 -17 15z"/>
<path d="M8589 563 c-26 -67 -23 -231 5 -269 13 -17 14 -16 26 7 20 37 24 156
7 211 -10 32 -11 48 -4 51 12 4 1 27 -14 27 -5 0 -14 -12 -20 -27z"/>
<path d="M9240 545 c0 -48 9 -55 34 -29 19 18 21 45 4 62 -25 25 -38 13 -38
-33z"/>
<path d="M160 243 l0 -83 118 1 117 0 -50 14 c-27 8 -53 14 -57 15 -14 0 -91
75 -110 105 l-18 30 0 -82z"/>
</g>
</svg>
